<mxfile host="app.diagrams.net" agent="Mozilla/5.0 (Windows NT 10.0; Win64; x64) AppleWebKit/537.36 (KHTML, like Gecko) Chrome/133.0.0.0 Safari/537.36" version="26.0.4">
  <diagram name="Page-1" id="reAOT3Oco6eEC9pbHS6k">
    <mxGraphModel dx="2570" dy="696" grid="1" gridSize="10" guides="1" tooltips="1" connect="1" arrows="1" fold="1" page="1" pageScale="1" pageWidth="850" pageHeight="1100" math="0" shadow="0">
      <root>
        <mxCell id="0" />
        <mxCell id="1" parent="0" />
        <mxCell id="CayvtUFHyNkxEdYOwhJw-2" style="edgeStyle=orthogonalEdgeStyle;rounded=0;orthogonalLoop=1;jettySize=auto;html=1;exitX=0.5;exitY=1;exitDx=0;exitDy=0;" edge="1" parent="1" source="CayvtUFHyNkxEdYOwhJw-1" target="CayvtUFHyNkxEdYOwhJw-3">
          <mxGeometry relative="1" as="geometry">
            <mxPoint x="450.04761904761904" y="360" as="targetPoint" />
          </mxGeometry>
        </mxCell>
        <mxCell id="CayvtUFHyNkxEdYOwhJw-1" value="CLIENT" style="rounded=0;whiteSpace=wrap;html=1;" vertex="1" parent="1">
          <mxGeometry x="390" y="200" width="120" height="60" as="geometry" />
        </mxCell>
        <mxCell id="CayvtUFHyNkxEdYOwhJw-3" value="GraphQL Gateway" style="rounded=0;whiteSpace=wrap;html=1;" vertex="1" parent="1">
          <mxGeometry x="370.02" y="330" width="159.95" height="60" as="geometry" />
        </mxCell>
        <mxCell id="CayvtUFHyNkxEdYOwhJw-4" value="Notificiation Service" style="rounded=0;whiteSpace=wrap;html=1;" vertex="1" parent="1">
          <mxGeometry y="530" width="160" height="60" as="geometry" />
        </mxCell>
        <mxCell id="CayvtUFHyNkxEdYOwhJw-5" value="User Service" style="rounded=0;whiteSpace=wrap;html=1;" vertex="1" parent="1">
          <mxGeometry x="380" y="530" width="169.98" height="60" as="geometry" />
        </mxCell>
        <mxCell id="CayvtUFHyNkxEdYOwhJw-6" value="Recommendation Service" style="rounded=0;whiteSpace=wrap;html=1;" vertex="1" parent="1">
          <mxGeometry x="770" y="520" width="160" height="60" as="geometry" />
        </mxCell>
        <mxCell id="CayvtUFHyNkxEdYOwhJw-9" value="" style="endArrow=classic;html=1;rounded=0;exitX=1;exitY=0.5;exitDx=0;exitDy=0;entryX=0.5;entryY=0;entryDx=0;entryDy=0;" edge="1" parent="1" source="CayvtUFHyNkxEdYOwhJw-3" target="CayvtUFHyNkxEdYOwhJw-6">
          <mxGeometry width="50" height="50" relative="1" as="geometry">
            <mxPoint x="500" y="340" as="sourcePoint" />
            <mxPoint x="550" y="290" as="targetPoint" />
          </mxGeometry>
        </mxCell>
        <mxCell id="CayvtUFHyNkxEdYOwhJw-10" value="" style="endArrow=classic;html=1;rounded=0;exitX=0.565;exitY=1.033;exitDx=0;exitDy=0;exitPerimeter=0;entryX=0.5;entryY=0;entryDx=0;entryDy=0;" edge="1" parent="1" source="CayvtUFHyNkxEdYOwhJw-3" target="CayvtUFHyNkxEdYOwhJw-5">
          <mxGeometry width="50" height="50" relative="1" as="geometry">
            <mxPoint x="500" y="370" as="sourcePoint" />
            <mxPoint x="550" y="320" as="targetPoint" />
          </mxGeometry>
        </mxCell>
        <mxCell id="CayvtUFHyNkxEdYOwhJw-11" value="" style="endArrow=classic;html=1;rounded=0;exitX=0;exitY=0.5;exitDx=0;exitDy=0;entryX=0.5;entryY=0;entryDx=0;entryDy=0;" edge="1" parent="1" source="CayvtUFHyNkxEdYOwhJw-3" target="CayvtUFHyNkxEdYOwhJw-4">
          <mxGeometry width="50" height="50" relative="1" as="geometry">
            <mxPoint x="500" y="370" as="sourcePoint" />
            <mxPoint x="550" y="320" as="targetPoint" />
          </mxGeometry>
        </mxCell>
        <mxCell id="CayvtUFHyNkxEdYOwhJw-13" style="edgeStyle=orthogonalEdgeStyle;rounded=0;orthogonalLoop=1;jettySize=auto;html=1;entryX=0.337;entryY=0.047;entryDx=0;entryDy=0;entryPerimeter=0;" edge="1" parent="1" source="CayvtUFHyNkxEdYOwhJw-12" target="CayvtUFHyNkxEdYOwhJw-4">
          <mxGeometry relative="1" as="geometry" />
        </mxCell>
        <mxCell id="CayvtUFHyNkxEdYOwhJw-17" value="" style="swimlane;startSize=0;" vertex="1" parent="1">
          <mxGeometry x="-72.5" y="340" width="305" height="280" as="geometry" />
        </mxCell>
        <mxCell id="CayvtUFHyNkxEdYOwhJw-12" value="Cron Jobs" style="whiteSpace=wrap;html=1;aspect=fixed;" vertex="1" parent="CayvtUFHyNkxEdYOwhJw-17">
          <mxGeometry x="92.5" y="60" width="70" height="70" as="geometry" />
        </mxCell>
        <mxCell id="CayvtUFHyNkxEdYOwhJw-18" value="&lt;font style=&quot;font-size: 18px;&quot;&gt;Schedulers&lt;/font&gt;" style="text;html=1;align=center;verticalAlign=middle;resizable=0;points=[];autosize=1;strokeColor=none;fillColor=none;" vertex="1" parent="CayvtUFHyNkxEdYOwhJw-17">
          <mxGeometry x="82.5" width="110" height="40" as="geometry" />
        </mxCell>
        <mxCell id="CayvtUFHyNkxEdYOwhJw-19" value="MongoDB : Notification DB" style="shape=cylinder3;whiteSpace=wrap;html=1;boundedLbl=1;backgroundOutline=1;size=15;" vertex="1" parent="1">
          <mxGeometry x="-30" y="680" width="140" height="80" as="geometry" />
        </mxCell>
        <mxCell id="CayvtUFHyNkxEdYOwhJw-20" value="MongoDB : Recommendation DB" style="shape=cylinder3;whiteSpace=wrap;html=1;boundedLbl=1;backgroundOutline=1;size=15;" vertex="1" parent="1">
          <mxGeometry x="780" y="680" width="140" height="80" as="geometry" />
        </mxCell>
        <mxCell id="CayvtUFHyNkxEdYOwhJw-21" value="MongoDB : User DB&amp;nbsp;" style="shape=cylinder3;whiteSpace=wrap;html=1;boundedLbl=1;backgroundOutline=1;size=15;" vertex="1" parent="1">
          <mxGeometry x="220" y="680" width="140" height="80" as="geometry" />
        </mxCell>
        <mxCell id="CayvtUFHyNkxEdYOwhJw-22" value="RabbitMQ" style="rhombus;whiteSpace=wrap;html=1;" vertex="1" parent="1">
          <mxGeometry x="500" y="660" width="110" height="100" as="geometry" />
        </mxCell>
        <mxCell id="CayvtUFHyNkxEdYOwhJw-23" style="edgeStyle=orthogonalEdgeStyle;rounded=0;orthogonalLoop=1;jettySize=auto;html=1;exitX=0.25;exitY=1;exitDx=0;exitDy=0;entryX=1;entryY=0.5;entryDx=0;entryDy=0;entryPerimeter=0;" edge="1" parent="1" source="CayvtUFHyNkxEdYOwhJw-5" target="CayvtUFHyNkxEdYOwhJw-21">
          <mxGeometry relative="1" as="geometry" />
        </mxCell>
        <mxCell id="CayvtUFHyNkxEdYOwhJw-24" value="" style="endArrow=classic;startArrow=classic;html=1;rounded=0;exitX=0.586;exitY=1.024;exitDx=0;exitDy=0;exitPerimeter=0;entryX=0;entryY=0;entryDx=0;entryDy=0;" edge="1" parent="1" source="CayvtUFHyNkxEdYOwhJw-5" target="CayvtUFHyNkxEdYOwhJw-22">
          <mxGeometry width="50" height="50" relative="1" as="geometry">
            <mxPoint x="500" y="490" as="sourcePoint" />
            <mxPoint x="550" y="440" as="targetPoint" />
          </mxGeometry>
        </mxCell>
        <mxCell id="CayvtUFHyNkxEdYOwhJw-25" value="" style="endArrow=classic;startArrow=classic;html=1;rounded=0;exitX=1;exitY=0;exitDx=0;exitDy=0;entryX=0;entryY=0.75;entryDx=0;entryDy=0;" edge="1" parent="1" source="CayvtUFHyNkxEdYOwhJw-22" target="CayvtUFHyNkxEdYOwhJw-6">
          <mxGeometry width="50" height="50" relative="1" as="geometry">
            <mxPoint x="500" y="490" as="sourcePoint" />
            <mxPoint x="550" y="440" as="targetPoint" />
          </mxGeometry>
        </mxCell>
        <mxCell id="CayvtUFHyNkxEdYOwhJw-26" value="" style="endArrow=classic;startArrow=classic;html=1;rounded=0;exitX=0;exitY=0.5;exitDx=0;exitDy=0;entryX=1;entryY=0.75;entryDx=0;entryDy=0;" edge="1" parent="1" source="CayvtUFHyNkxEdYOwhJw-22" target="CayvtUFHyNkxEdYOwhJw-4">
          <mxGeometry width="50" height="50" relative="1" as="geometry">
            <mxPoint x="500" y="490" as="sourcePoint" />
            <mxPoint x="550" y="440" as="targetPoint" />
          </mxGeometry>
        </mxCell>
        <mxCell id="CayvtUFHyNkxEdYOwhJw-28" style="edgeStyle=orthogonalEdgeStyle;rounded=0;orthogonalLoop=1;jettySize=auto;html=1;exitX=0.25;exitY=1;exitDx=0;exitDy=0;entryX=0.5;entryY=0;entryDx=0;entryDy=0;entryPerimeter=0;" edge="1" parent="1" source="CayvtUFHyNkxEdYOwhJw-4" target="CayvtUFHyNkxEdYOwhJw-19">
          <mxGeometry relative="1" as="geometry" />
        </mxCell>
        <mxCell id="CayvtUFHyNkxEdYOwhJw-29" style="edgeStyle=orthogonalEdgeStyle;rounded=0;orthogonalLoop=1;jettySize=auto;html=1;exitX=0.5;exitY=1;exitDx=0;exitDy=0;entryX=0.5;entryY=0;entryDx=0;entryDy=0;entryPerimeter=0;" edge="1" parent="1" source="CayvtUFHyNkxEdYOwhJw-6" target="CayvtUFHyNkxEdYOwhJw-20">
          <mxGeometry relative="1" as="geometry" />
        </mxCell>
      </root>
    </mxGraphModel>
  </diagram>
</mxfile>
